<svg version="1.1" id="Layer_1" xmlns="http://www.w3.org/2000/svg" xmlns:xlink="http://www.w3.org/1999/xlink" x="0px" y="0px"
	 width="100%" viewBox="0 0 1024 1024" enable-background="new 0 0 1024 1024" xml:space="preserve">
<path fill="#000000" opacity="1.000000" stroke="none" 
	d="
M630.637817,644.207825 
	C636.791992,645.841858 642.552368,647.354492 648.728394,648.976318 
	C649.174866,645.192993 647.806946,642.277466 647.041687,639.319824 
	C642.832947,623.054321 639.225220,606.671692 636.512878,590.081116 
	C635.853088,586.045288 636.761169,584.698364 640.912292,584.750732 
	C654.409058,584.921204 667.911255,584.928101 681.407227,584.722961 
	C685.074036,584.667236 686.509949,586.262878 687.054077,589.485474 
	C689.743225,605.413147 693.354736,621.124268 698.296326,636.511963 
	C710.467590,674.412964 726.405945,710.562500 748.309204,743.936096 
	C749.639160,745.962402 751.422546,747.791809 751.684875,750.719971 
	C749.332764,751.039001 747.838928,749.581726 746.270630,748.552002 
	C706.194031,722.240356 662.735291,703.681763 616.276794,692.127747 
	C589.751221,685.530945 562.864502,681.269165 535.490540,680.012817 
	C520.248352,679.313171 523.333557,680.825928 523.111633,667.020996 
	C522.945618,656.691101 523.141602,646.355591 523.008118,636.024780 
	C522.952637,631.733887 523.942688,627.839966 525.859924,624.028870 
	C544.649902,586.678589 563.426819,549.321533 582.125793,511.925629 
	C603.880371,468.418762 625.555542,424.872162 647.249207,381.334869 
	C647.905518,380.017853 648.384094,378.612335 649.291443,376.407318 
	C646.603271,376.957306 644.543396,377.250153 642.556763,377.805023 
	C621.210144,383.766846 599.589478,388.418884 577.601807,391.248444 
	C574.023682,391.708923 573.332764,393.708679 573.339355,396.718445 
	C573.366760,409.217163 573.189514,421.718414 573.398254,434.213531 
	C573.473389,438.714539 572.065918,440.401733 567.395630,440.306458 
	C554.568481,440.044800 541.730286,440.071136 528.901489,440.283478 
	C524.546814,440.355530 523.019531,438.817749 523.035767,434.509094 
	C523.140625,406.678436 523.091919,378.847076 523.053650,351.016052 
	C523.049316,347.851135 523.461060,345.783173 527.576782,345.596283 
	C606.102173,342.030853 678.847900,319.982117 745.075684,277.237244 
	C746.472595,276.335693 747.934937,275.531128 749.398621,274.740295 
	C749.810974,274.517517 750.336853,274.504791 751.088013,274.331818 
	C752.052185,276.915649 750.077881,278.465210 749.004944,280.014069 
	C734.407227,301.086060 723.453430,324.065491 713.437256,347.540985 
	C707.030029,362.558289 701.627502,377.949707 696.334290,393.385956 
	C695.045044,397.145660 693.291504,400.769440 691.504089,404.331543 
	C654.447937,478.179016 617.354492,552.007690 580.280029,625.845947 
	C579.241089,627.915100 577.998962,629.932068 577.934998,633.376465 
	C595.282959,636.794067 613.019104,639.300049 630.637817,644.207825 
z"/>
<path fill="#000000" opacity="1.000000" stroke="none" 
	d="
M322.658264,372.300690 
	C309.384888,338.127014 294.837708,305.012970 273.740326,274.978394 
	C276.403168,273.890106 277.538025,275.168457 278.693451,275.922424 
	C298.548218,288.879059 319.316010,300.151733 340.974854,309.782318 
	C343.814209,311.044800 345.916962,312.863434 347.527740,315.609680 
	C368.135986,350.745239 381.626740,388.417145 388.411102,428.570740 
	C391.071625,444.317291 392.957947,460.135895 394.331726,476.031067 
	C394.386353,476.663025 394.636749,477.278076 394.786163,477.862762 
	C396.991821,478.659363 398.501312,477.300720 399.994659,476.446716 
	C416.623657,466.937103 433.179535,457.299377 449.829376,447.826752 
	C452.759521,446.159698 452.716003,443.710510 452.716217,440.996460 
	C452.718567,410.167053 452.739868,379.337677 452.774261,348.508270 
	C452.781860,341.711639 452.797272,341.901154 459.729309,342.536407 
	C472.482910,343.705200 485.249603,344.786499 498.031921,345.552979 
	C501.804382,345.779175 502.958618,347.289429 502.957123,350.724609 
	C502.939514,390.886414 502.943390,431.048279 503.029572,471.209930 
	C503.036774,474.556641 501.457397,476.199341 498.703796,477.730865 
	C479.925446,488.175232 461.230713,498.770081 442.525513,509.345490 
	C441.123383,510.138184 439.401703,510.661316 438.747467,513.253174 
	C444.257599,516.485901 449.905426,519.886841 455.635071,523.143799 
	C470.117249,531.376038 484.603790,539.601929 499.168274,547.686829 
	C502.022522,549.271301 503.085083,551.253235 503.076324,554.476440 
	C502.968750,594.138000 502.915161,633.799988 503.010925,673.461426 
	C503.021790,677.961365 501.609467,679.374512 497.007751,679.571533 
	C483.885620,680.133484 470.726196,680.710754 457.756256,683.018494 
	C452.849396,683.891479 452.648529,681.187927 452.655853,677.592529 
	C452.717133,647.429443 452.514709,617.263916 452.871368,587.104797 
	C452.942200,581.117310 451.151001,577.872192 445.922272,575.015076 
	C431.601990,567.190186 417.632080,558.724731 403.509308,550.537354 
	C400.937164,549.046265 398.439392,547.353333 394.778534,546.717773 
	C393.955475,554.344971 393.123077,561.857300 392.337158,569.374512 
	C387.057037,619.878540 372.693512,667.448608 346.607971,711.250671 
	C345.613434,712.920654 344.385437,714.022034 342.613342,714.780334 
	C320.039429,724.440918 298.565369,736.133972 278.147034,749.771667 
	C277.076996,750.486328 276.016998,751.403442 274.126068,750.935913 
	C274.254608,748.111816 276.138092,746.164978 277.503357,744.062073 
	C308.727539,695.968689 329.443573,643.713684 339.500031,587.266907 
	C345.184540,555.359680 347.205078,523.123169 345.442749,490.826263 
	C343.371063,452.859528 337.361298,415.463898 324.864899,379.343689 
	C324.103699,377.143494 323.470551,374.898987 322.658264,372.300690 
z"/>
</svg>
