<svg width="1024" height="1024" viewBox="0 0 1024 1024" fill="none" xmlns="http://www.w3.org/2000/svg">
<path d="M729.433 753.446C740.708 756.44 751.262 759.212 762.577 762.184C763.395 755.251 760.889 749.909 759.487 744.489C751.776 714.685 745.166 684.666 740.197 654.266C738.988 646.871 740.652 644.403 748.257 644.499C772.985 644.811 797.724 644.824 822.451 644.448C829.169 644.346 831.8 647.27 832.797 653.175C837.723 682.36 844.34 711.148 853.394 739.344C875.694 808.793 904.896 875.032 945.026 936.185C947.463 939.898 950.73 943.25 951.211 948.615C946.901 949.2 944.165 946.53 941.291 944.643C867.864 896.43 788.24 862.424 703.121 841.253C654.521 829.165 605.261 821.356 555.107 819.054C527.181 817.772 532.833 820.544 532.427 795.248C532.122 776.32 532.482 757.381 532.237 738.452C532.135 730.589 533.949 723.454 537.462 716.471C571.888 648.031 606.291 579.579 640.55 511.056C680.408 431.336 720.121 351.542 759.867 271.766C761.07 269.353 761.947 266.777 763.609 262.737C758.684 263.745 754.91 264.281 751.27 265.298C712.159 276.222 672.547 284.747 632.262 289.931C625.706 290.775 624.44 294.44 624.452 299.955C624.502 322.857 624.178 345.764 624.56 368.659C624.698 376.907 622.119 379.998 613.562 379.824C590.061 379.344 566.539 379.393 543.035 379.782C535.056 379.914 532.258 377.096 532.288 369.201C532.48 318.205 532.391 267.208 532.32 216.211C532.312 210.412 533.067 206.622 540.608 206.28C684.479 199.747 817.761 159.345 939.102 81.0211C941.661 79.3691 944.34 77.8948 947.022 76.4457C947.778 76.0375 948.741 76.0142 950.117 75.6973C951.884 80.4318 948.267 83.2712 946.301 86.1092C919.555 124.721 899.486 166.828 881.135 209.843C869.396 237.361 859.497 265.563 849.799 293.848C847.437 300.737 844.225 307.377 840.95 313.905C773.057 449.22 705.095 584.501 637.169 719.8C635.265 723.592 632.989 727.288 632.872 733.599C664.657 739.861 697.152 744.453 729.433 753.446Z" fill="black"/>
<path d="M164.011 254.977C139.645 192.296 112.94 131.559 74.2109 76.4695C79.0992 74.4734 81.1825 76.8181 83.3036 78.2011C119.752 101.966 157.876 122.642 197.636 140.306C202.848 142.622 206.708 145.958 209.665 150.995C247.496 215.44 272.262 284.537 284.716 358.186C289.6 387.068 293.063 416.083 295.585 445.237C295.685 446.396 296.145 447.525 296.419 448.597C300.468 450.058 303.239 447.566 305.98 446C336.507 428.557 366.899 410.88 397.464 393.505C402.843 390.448 402.763 385.955 402.763 380.977C402.767 324.431 402.806 267.884 402.87 211.337C402.884 198.871 402.912 199.218 415.637 200.383C439.049 202.527 462.486 204.51 485.951 205.916C492.876 206.331 494.995 209.101 494.992 215.402C494.96 289.066 494.967 362.731 495.125 436.394C495.138 442.533 492.239 445.546 487.184 448.355C452.712 467.512 418.393 486.945 384.056 506.342C381.482 507.796 378.321 508.756 377.12 513.51C387.235 519.439 397.603 525.677 408.121 531.651C434.707 546.75 461.3 561.838 488.037 576.667C493.276 579.573 495.227 583.209 495.211 589.121C495.013 661.867 494.915 734.615 495.091 807.361C495.111 815.615 492.518 818.207 484.071 818.568C459.982 819.599 435.825 820.658 412.015 824.89C403.008 826.492 402.639 821.533 402.652 814.938C402.765 759.614 402.393 704.284 403.048 648.967C403.178 637.985 399.89 632.033 390.291 626.792C364.003 612.44 338.358 596.913 312.432 581.896C307.71 579.161 303.125 576.056 296.405 574.89C294.894 588.879 293.366 602.658 291.923 616.446C282.23 709.08 255.863 796.332 207.977 876.674C206.151 879.737 203.897 881.757 200.643 883.148C159.204 900.867 119.783 922.314 82.3005 947.328C80.3362 948.639 78.3903 950.321 74.9191 949.464C75.155 944.284 78.6126 940.713 81.1189 936.856C138.438 848.644 176.467 752.798 194.928 649.264C205.364 590.741 209.073 531.613 205.838 472.374C202.034 402.736 191.002 334.146 168.062 267.895C166.665 263.859 165.502 259.742 164.011 254.977Z" fill="black"/>
</svg>
